<svg width="18" height="18" viewBox="0 0 18 18" fill="none" xmlns="http://www.w3.org/2000/svg">
<path d="M3.25 0C1.46403 0 0 1.46403 0 3.25V14.75C0 16.536 1.46403 18 3.25 18H14.75C16.536 18 18 16.536 18 14.75V3.25C18 1.46403 16.536 0 14.75 0H3.25ZM3.25 1.5H14.75C15.725 1.5 16.5 2.27497 16.5 3.25V4H1.5V3.25C1.5 2.27497 2.27497 1.5 3.25 1.5ZM1.5 5.5H16.5V14.75C16.5 15.725 15.725 16.5 14.75 16.5H3.25C2.27497 16.5 1.5 15.725 1.5 14.75V5.5ZM4.5 8C4.23478 8 3.98043 8.10536 3.79289 8.29289C3.60536 8.48043 3.5 8.73478 3.5 9C3.5 9.26522 3.60536 9.51957 3.79289 9.70711C3.98043 9.89464 4.23478 10 4.5 10C4.76522 10 5.01957 9.89464 5.20711 9.70711C5.39464 9.51957 5.5 9.26522 5.5 9C5.5 8.73478 5.39464 8.48043 5.20711 8.29289C5.01957 8.10536 4.76522 8 4.5 8ZM9 8C8.73478 8 8.48043 8.10536 8.29289 8.29289C8.10536 8.48043 8 8.73478 8 9C8 9.26522 8.10536 9.51957 8.29289 9.70711C8.48043 9.89464 8.73478 10 9 10C9.26522 10 9.51957 9.89464 9.70711 9.70711C9.89464 9.51957 10 9.26522 10 9C10 8.73478 9.89464 8.48043 9.70711 8.29289C9.51957 8.10536 9.26522 8 9 8ZM13.5 8C13.2348 8 12.9804 8.10536 12.7929 8.29289C12.6054 8.48043 12.5 8.73478 12.5 9C12.5 9.26522 12.6054 9.51957 12.7929 9.70711C12.9804 9.89464 13.2348 10 13.5 10C13.7652 10 14.0196 9.89464 14.2071 9.70711C14.3946 9.51957 14.5 9.26522 14.5 9C14.5 8.73478 14.3946 8.48043 14.2071 8.29289C14.0196 8.10536 13.7652 8 13.5 8ZM9 11.5C8.60218 11.5 8.22064 11.658 7.93934 11.9393C7.65804 12.2206 7.5 12.6022 7.5 13C7.5 13.3978 7.65804 13.7794 7.93934 14.0607C8.22064 14.342 8.60218 14.5 9 14.5C9.39782 14.5 9.77936 14.342 10.0607 14.0607C10.342 13.7794 10.5 13.3978 10.5 13C10.5 12.6022 10.342 12.2206 10.0607 11.9393C9.77936 11.658 9.39782 11.5 9 11.5ZM4.5 12C4.23478 12 3.98043 12.1054 3.79289 12.2929C3.60536 12.4804 3.5 12.7348 3.5 13C3.5 13.2652 3.60536 13.5196 3.79289 13.7071C3.98043 13.8946 4.23478 14 4.5 14C4.76522 14 5.01957 13.8946 5.20711 13.7071C5.39464 13.5196 5.5 13.2652 5.5 13C5.5 12.7348 5.39464 12.4804 5.20711 12.2929C5.01957 12.1054 4.76522 12 4.5 12Z" fill="#F83D4B"/>
</svg>
