<svg width="13" height="14" viewBox="0 0 13 14" fill="none" xmlns="http://www.w3.org/2000/svg">
<path d="M2.94811 0.9H2.84811V1V2.1H2.34285C1.62266 2.1 1.03232 2.68395 1.03232 3.4V11.8C1.03232 12.5161 1.62266 13.1 2.34285 13.1H10.8165C11.5367 13.1 12.1271 12.5161 12.1271 11.8V11.7H12.0271H2.44285V5.9H12.0271H12.1271V5.8V3.4C12.1271 2.68395 11.5367 2.1 10.8165 2.1H10.3113V1V0.9H10.2113H9.00075H8.90075V1V2.1H4.25864V1V0.9H4.15864H2.94811ZM10.8869 6.92898L10.7165 6.76006V7V8.1H6.57969H6.47969V8.2V9.4V9.5H6.57969H10.7165V10.6V10.8399L10.8869 10.671L12.0975 9.47102L12.7027 8.87102L12.7744 8.8L12.7027 8.72898L12.0975 8.12898L10.8869 6.92898ZM2.44285 3.5H10.7165V4.5H2.44285V3.5Z" fill="#EC3D41" stroke="#EC3D41" stroke-width="0.2"/>
</svg>
