<svg width="20" height="20" viewBox="0 0 20 20" fill="none" xmlns="http://www.w3.org/2000/svg">
<path d="M12.5 0.833008H3.33332C2.41666 0.833008 1.66666 1.58301 1.66666 2.49967V13.333C1.66666 13.7913 2.04166 14.1663 2.49999 14.1663C2.95832 14.1663 3.33332 13.7913 3.33332 13.333V3.33301C3.33332 2.87467 3.70832 2.49967 4.16666 2.49967H12.5C12.9583 2.49967 13.3333 2.12467 13.3333 1.66634C13.3333 1.20801 12.9583 0.833008 12.5 0.833008ZM15.8333 4.16634H6.66666C5.74999 4.16634 4.99999 4.91634 4.99999 5.83301V17.4997C4.99999 18.4163 5.74999 19.1663 6.66666 19.1663H15.8333C16.75 19.1663 17.5 18.4163 17.5 17.4997V5.83301C17.5 4.91634 16.75 4.16634 15.8333 4.16634ZM15 17.4997H7.49999C7.04166 17.4997 6.66666 17.1247 6.66666 16.6663V6.66634C6.66666 6.20801 7.04166 5.83301 7.49999 5.83301H15C15.4583 5.83301 15.8333 6.20801 15.8333 6.66634V16.6663C15.8333 17.1247 15.4583 17.4997 15 17.4997Z" fill="url(#paint0_linear_10988_33853)"/>
<defs>
<linearGradient id="paint0_linear_10988_33853" x1="9.58332" y1="0.833008" x2="9.58332" y2="19.1663" gradientUnits="userSpaceOnUse">
<stop offset="0.0729167" stop-color="#C42E66"/>
<stop offset="0.9999" stop-color="#EF3E3E"/>
<stop offset="1" stop-color="#D13854"/>
</linearGradient>
</defs>
</svg>
