<svg width="512" height="512" viewBox="0 0 512 512" fill="none" xmlns="http://www.w3.org/2000/svg">
<g filter="url(#filter0_b_11789_33758)">
<rect width="512" height="512" rx="30" fill="#ECECEC"/>
</g>
<path fill-rule="evenodd" clip-rule="evenodd" d="M319.668 191.592H191.676C188.847 191.592 186.134 192.716 184.134 194.716C182.134 196.716 181.01 199.429 181.01 202.258V298.252L209.232 273.144C210.104 272.275 211.25 271.735 212.474 271.614C213.699 271.494 214.928 271.801 215.952 272.483L244.324 291.393L283.894 251.823C284.685 251.031 285.705 250.508 286.81 250.328C287.914 250.148 289.047 250.32 290.049 250.82L330.334 271.587V202.258C330.334 199.429 329.21 196.716 327.21 194.716C325.21 192.716 322.497 191.592 319.668 191.592ZM191.676 180.926C186.019 180.926 180.593 183.173 176.592 187.174C172.592 191.174 170.344 196.6 170.344 202.258V308.918C170.344 314.575 172.592 320.001 176.592 324.002C180.593 328.002 186.019 330.25 191.676 330.25H319.668C322.47 330.25 325.243 329.698 327.832 328.626C330.42 327.554 332.771 325.983 334.752 324.002C336.733 322.021 338.304 319.669 339.376 317.081C340.448 314.493 341 311.719 341 308.918V202.258C341 196.6 338.753 191.174 334.752 187.174C330.752 183.173 325.326 180.926 319.668 180.926H191.676ZM234.34 228.923C234.34 231.024 233.926 233.104 233.122 235.045C232.318 236.986 231.14 238.75 229.654 240.236C228.169 241.721 226.405 242.9 224.464 243.704C222.523 244.508 220.442 244.922 218.341 244.922C216.24 244.922 214.16 244.508 212.219 243.704C210.278 242.9 208.514 241.721 207.028 240.236C205.543 238.75 204.364 236.986 203.56 235.045C202.756 233.104 202.342 231.024 202.342 228.923C202.342 224.68 204.028 220.61 207.028 217.61C210.029 214.609 214.098 212.924 218.341 212.924C222.584 212.924 226.654 214.609 229.654 217.61C232.655 220.61 234.34 224.68 234.34 228.923Z" fill="#9E9E9E"/>
<defs>
<filter id="filter0_b_11789_33758" x="-4" y="-4" width="520" height="520" filterUnits="userSpaceOnUse" color-interpolation-filters="sRGB">
<feFlood flood-opacity="0" result="BackgroundImageFix"/>
<feGaussianBlur in="BackgroundImageFix" stdDeviation="2"/>
<feComposite in2="SourceAlpha" operator="in" result="effect1_backgroundBlur_11789_33758"/>
<feBlend mode="normal" in="SourceGraphic" in2="effect1_backgroundBlur_11789_33758" result="shape"/>
</filter>
</defs>
</svg>
