<svg width="11" height="9" viewBox="0 0 11 9" fill="none" xmlns="http://www.w3.org/2000/svg">
<path d="M2.15625 0.731445C1.87291 0.731445 1.64295 0.890556 1.64295 1.0866V1.44176H1.12964C0.565003 1.44176 0.103027 1.7614 0.103027 2.15208V7.12429C0.103027 7.51497 0.565003 7.83461 1.12964 7.83461H5.23509C5.37112 7.83461 5.50203 7.79733 5.59801 7.73056C5.9214 7.50681 5.69245 7.12429 5.23509 7.12429H1.12964V3.21755H8.31593V4.99265C8.31593 5.3091 8.86878 5.46751 9.19216 5.24376C9.28866 5.17734 9.34255 5.08677 9.34255 4.99265V2.15208C9.34255 1.7614 8.88057 1.44176 8.31593 1.44176H7.80263V1.0866C7.80263 0.890556 7.57266 0.731445 7.28932 0.731445C7.00597 0.731445 6.77601 0.890556 6.77601 1.0866V1.44176H2.66956V1.0866C2.66956 0.890556 2.4396 0.731445 2.15625 0.731445ZM10.1566 5.70366C9.9708 5.70366 9.78498 5.75269 9.64331 5.85072L9.26735 6.11084L10.294 6.82116L10.6699 6.56103C10.9533 6.36499 10.9533 6.04676 10.6699 5.85072C10.5283 5.75269 10.3424 5.70366 10.1566 5.70366ZM8.90443 6.36195L6.3379 8.13774C6.29016 8.17113 6.26271 8.21606 6.26271 8.2633V8.7225C6.26271 8.82053 6.37769 8.90008 6.51936 8.90008H7.18305C7.2508 8.90008 7.31626 8.88109 7.36451 8.84806L9.93104 7.07227L8.90443 6.36195Z" fill="#9D9D9D"/>
</svg>
