<svg width="352" height="158" viewBox="0 0 352 158" fill="none" xmlns="http://www.w3.org/2000/svg">
<circle opacity="0.2" cx="176" cy="52" r="52" fill="#F83D4B"/>
<g filter="url(#filter0_dd_11050_33433)">
<path fill-rule="evenodd" clip-rule="evenodd" d="M177.6 16C166.827 16 157.298 21.3233 151.499 29.4829C149.605 29.0363 147.63 28.8 145.6 28.8C131.462 28.8 120 40.2615 120 54.4C120 68.5385 131.462 80 145.6 80L145.62 80H209.6C221.971 80 232 69.9712 232 57.6C232 45.2288 221.971 35.2 209.6 35.2C208.721 35.2 207.854 35.2506 207.002 35.349C202.098 23.9677 190.78 16 177.6 16Z" fill="#ECFAFF"/>
<ellipse cx="145.6" cy="54.3998" rx="25.6" ry="25.6" fill="url(#paint0_linear_11050_33433)"/>
<circle cx="177.6" cy="48" r="32" fill="url(#paint1_linear_11050_33433)"/>
<ellipse cx="209.6" cy="57.6002" rx="22.4" ry="22.4" fill="url(#paint2_linear_11050_33433)"/>
</g>
<circle cx="121" cy="19" r="5" fill="url(#paint3_linear_11050_33433)" fill-opacity="0.5"/>
<circle cx="118" cy="109" r="7" fill="url(#paint4_linear_11050_33433)" fill-opacity="0.5"/>
<circle cx="245" cy="35" r="7" fill="url(#paint5_linear_11050_33433)" fill-opacity="0.5"/>
<circle cx="234" cy="8" r="4" fill="url(#paint6_linear_11050_33433)" fill-opacity="0.5"/>
<g filter="url(#filter1_b_11050_33433)">
<rect x="152" y="62" width="48" height="48" rx="24" fill="url(#paint7_linear_11050_33433)"/>
<path d="M185 95L180.65 90.65M183 85C183 89.4183 179.418 93 175 93C170.582 93 167 89.4183 167 85C167 80.5817 170.582 77 175 77C179.418 77 183 80.5817 183 85Z" stroke="white" stroke-width="2" stroke-linecap="round" stroke-linejoin="round"/>
</g>
<path d="M124.231 138.8H126.071V150H124.631L119.351 142.4V150H117.511V138.8H118.951L124.231 146.4V138.8ZM131.972 150.208C130.798 150.208 129.801 149.803 128.98 148.992C128.158 148.181 127.748 147.184 127.748 146C127.748 144.816 128.158 143.819 128.98 143.008C129.801 142.197 130.798 141.792 131.972 141.792C133.156 141.792 134.153 142.197 134.964 143.008C135.785 143.819 136.196 144.816 136.196 146C136.196 147.184 135.785 148.181 134.964 148.992C134.153 149.803 133.156 150.208 131.972 150.208ZM130.196 147.808C130.676 148.288 131.268 148.528 131.972 148.528C132.676 148.528 133.268 148.288 133.748 147.808C134.228 147.328 134.468 146.725 134.468 146C134.468 145.275 134.228 144.672 133.748 144.192C133.268 143.712 132.676 143.472 131.972 143.472C131.268 143.472 130.676 143.712 130.196 144.192C129.716 144.672 129.476 145.275 129.476 146C129.476 146.725 129.716 147.328 130.196 147.808ZM148.254 150L145.886 145.92H143.71V150H141.87V138.8H146.35C147.353 138.8 148.201 139.152 148.894 139.856C149.598 140.549 149.95 141.397 149.95 142.4C149.95 143.115 149.742 143.771 149.326 144.368C148.921 144.955 148.387 145.381 147.726 145.648L150.27 150H148.254ZM143.71 140.528V144.272H146.35C146.841 144.272 147.257 144.091 147.598 143.728C147.939 143.365 148.11 142.923 148.11 142.4C148.11 141.877 147.939 141.435 147.598 141.072C147.257 140.709 146.841 140.528 146.35 140.528H143.71ZM152.509 146.736C152.637 147.344 152.93 147.813 153.389 148.144C153.847 148.464 154.407 148.624 155.069 148.624C155.986 148.624 156.674 148.293 157.133 147.632L158.557 148.464C157.767 149.627 156.599 150.208 155.053 150.208C153.751 150.208 152.701 149.813 151.901 149.024C151.101 148.224 150.701 147.216 150.701 146C150.701 144.805 151.095 143.808 151.885 143.008C152.674 142.197 153.687 141.792 154.925 141.792C156.098 141.792 157.058 142.203 157.805 143.024C158.562 143.845 158.941 144.843 158.941 146.016C158.941 146.197 158.919 146.437 158.877 146.736H152.509ZM152.493 145.328H157.197C157.079 144.677 156.807 144.187 156.381 143.856C155.965 143.525 155.474 143.36 154.909 143.36C154.269 143.36 153.735 143.536 153.309 143.888C152.882 144.24 152.61 144.72 152.493 145.328ZM161.701 144.208C161.701 144.475 161.845 144.688 162.133 144.848C162.431 144.997 162.789 145.131 163.205 145.248C163.631 145.355 164.058 145.483 164.485 145.632C164.911 145.781 165.269 146.037 165.557 146.4C165.855 146.752 166.005 147.2 166.005 147.744C166.005 148.512 165.706 149.115 165.109 149.552C164.522 149.989 163.781 150.208 162.885 150.208C162.095 150.208 161.418 150.043 160.853 149.712C160.287 149.381 159.877 148.923 159.621 148.336L161.109 147.472C161.386 148.24 161.978 148.624 162.885 148.624C163.791 148.624 164.245 148.325 164.245 147.728C164.245 147.472 164.095 147.264 163.797 147.104C163.509 146.944 163.151 146.811 162.725 146.704C162.309 146.587 161.887 146.453 161.461 146.304C161.034 146.155 160.671 145.909 160.373 145.568C160.085 145.216 159.941 144.773 159.941 144.24C159.941 143.504 160.218 142.912 160.773 142.464C161.338 142.016 162.037 141.792 162.869 141.792C163.53 141.792 164.117 141.941 164.629 142.24C165.151 142.528 165.551 142.933 165.829 143.456L164.373 144.272C164.095 143.664 163.594 143.36 162.869 143.36C162.538 143.36 162.261 143.435 162.037 143.584C161.813 143.723 161.701 143.931 161.701 144.208ZM172.822 142H174.55V150H172.822V148.976C172.299 149.797 171.473 150.208 170.342 150.208C169.425 150.208 168.683 149.915 168.118 149.328C167.553 148.741 167.27 147.936 167.27 146.912V142H168.998V146.736C168.998 147.333 169.158 147.792 169.478 148.112C169.798 148.432 170.235 148.592 170.79 148.592C171.398 148.592 171.889 148.405 172.262 148.032C172.635 147.648 172.822 147.067 172.822 146.288V142ZM176.571 150V138.32H178.299V150H176.571ZM184.769 143.664H182.785V147.504C182.785 147.835 182.86 148.075 183.009 148.224C183.158 148.363 183.377 148.443 183.665 148.464C183.964 148.475 184.332 148.469 184.769 148.448V150C183.446 150.16 182.497 150.048 181.921 149.664C181.345 149.269 181.057 148.549 181.057 147.504V143.664H179.585V142H181.057V140.272L182.785 139.76V142H184.769V143.664ZM197.086 140.56H192.366V143.696H196.926V145.456H192.366V150H190.526V138.8H197.086V140.56ZM202.472 150.208C201.298 150.208 200.301 149.803 199.48 148.992C198.658 148.181 198.248 147.184 198.248 146C198.248 144.816 198.658 143.819 199.48 143.008C200.301 142.197 201.298 141.792 202.472 141.792C203.656 141.792 204.653 142.197 205.464 143.008C206.285 143.819 206.696 144.816 206.696 146C206.696 147.184 206.285 148.181 205.464 148.992C204.653 149.803 203.656 150.208 202.472 150.208ZM200.696 147.808C201.176 148.288 201.768 148.528 202.472 148.528C203.176 148.528 203.768 148.288 204.248 147.808C204.728 147.328 204.968 146.725 204.968 146C204.968 145.275 204.728 144.672 204.248 144.192C203.768 143.712 203.176 143.472 202.472 143.472C201.768 143.472 201.176 143.712 200.696 144.192C200.216 144.672 199.976 145.275 199.976 146C199.976 146.725 200.216 147.328 200.696 147.808ZM213.65 142H215.378V150H213.65V148.976C213.127 149.797 212.301 150.208 211.17 150.208C210.253 150.208 209.511 149.915 208.946 149.328C208.381 148.741 208.098 147.936 208.098 146.912V142H209.826V146.736C209.826 147.333 209.986 147.792 210.306 148.112C210.626 148.432 211.063 148.592 211.618 148.592C212.226 148.592 212.717 148.405 213.09 148.032C213.463 147.648 213.65 147.067 213.65 146.288V142ZM221.607 141.792C222.524 141.792 223.265 142.085 223.831 142.672C224.396 143.259 224.679 144.064 224.679 145.088V150H222.951V145.264C222.951 144.667 222.791 144.208 222.471 143.888C222.151 143.568 221.713 143.408 221.159 143.408C220.551 143.408 220.06 143.6 219.687 143.984C219.313 144.357 219.127 144.933 219.127 145.712V150H217.399V142H219.127V143.024C219.649 142.203 220.476 141.792 221.607 141.792ZM232.875 138.8H234.603V150H232.875V148.848C232.225 149.755 231.291 150.208 230.075 150.208C228.977 150.208 228.038 149.803 227.259 148.992C226.481 148.171 226.091 147.173 226.091 146C226.091 144.816 226.481 143.819 227.259 143.008C228.038 142.197 228.977 141.792 230.075 141.792C231.291 141.792 232.225 142.24 232.875 143.136V138.8ZM228.539 147.84C229.019 148.32 229.622 148.56 230.347 148.56C231.073 148.56 231.675 148.32 232.155 147.84C232.635 147.349 232.875 146.736 232.875 146C232.875 145.264 232.635 144.656 232.155 144.176C231.675 143.685 231.073 143.44 230.347 143.44C229.622 143.44 229.019 143.685 228.539 144.176C228.059 144.656 227.819 145.264 227.819 146C227.819 146.736 228.059 147.349 228.539 147.84Z" fill="#101828"/>
<defs>
<filter id="filter0_dd_11050_33433" x="100" y="16" width="152" height="104" filterUnits="userSpaceOnUse" color-interpolation-filters="sRGB">
<feFlood flood-opacity="0" result="BackgroundImageFix"/>
<feColorMatrix in="SourceAlpha" type="matrix" values="0 0 0 0 0 0 0 0 0 0 0 0 0 0 0 0 0 0 127 0" result="hardAlpha"/>
<feMorphology radius="4" operator="erode" in="SourceAlpha" result="effect1_dropShadow_11050_33433"/>
<feOffset dy="8"/>
<feGaussianBlur stdDeviation="4"/>
<feColorMatrix type="matrix" values="0 0 0 0 0.0627451 0 0 0 0 0.0941176 0 0 0 0 0.156863 0 0 0 0.04 0"/>
<feBlend mode="normal" in2="BackgroundImageFix" result="effect1_dropShadow_11050_33433"/>
<feColorMatrix in="SourceAlpha" type="matrix" values="0 0 0 0 0 0 0 0 0 0 0 0 0 0 0 0 0 0 127 0" result="hardAlpha"/>
<feMorphology radius="4" operator="erode" in="SourceAlpha" result="effect2_dropShadow_11050_33433"/>
<feOffset dy="20"/>
<feGaussianBlur stdDeviation="12"/>
<feColorMatrix type="matrix" values="0 0 0 0 0.0627451 0 0 0 0 0.0941176 0 0 0 0 0.156863 0 0 0 0.1 0"/>
<feBlend mode="normal" in2="effect1_dropShadow_11050_33433" result="effect2_dropShadow_11050_33433"/>
<feBlend mode="normal" in="SourceGraphic" in2="effect2_dropShadow_11050_33433" result="shape"/>
</filter>
<filter id="filter1_b_11050_33433" x="144" y="54" width="64" height="64" filterUnits="userSpaceOnUse" color-interpolation-filters="sRGB">
<feFlood flood-opacity="0" result="BackgroundImageFix"/>
<feGaussianBlur in="BackgroundImageFix" stdDeviation="4"/>
<feComposite in2="SourceAlpha" operator="in" result="effect1_backgroundBlur_11050_33433"/>
<feBlend mode="normal" in="SourceGraphic" in2="effect1_backgroundBlur_11050_33433" result="shape"/>
</filter>
<linearGradient id="paint0_linear_11050_33433" x1="125.943" y1="37.4855" x2="171.2" y2="79.9998" gradientUnits="userSpaceOnUse">
<stop stop-color="#FFB74D"/>
<stop offset="0.350715" stop-color="white" stop-opacity="0"/>
</linearGradient>
<linearGradient id="paint1_linear_11050_33433" x1="153.028" y1="26.8571" x2="209.6" y2="80" gradientUnits="userSpaceOnUse">
<stop stop-color="#FFB74D"/>
<stop offset="0.350715" stop-color="white" stop-opacity="0"/>
</linearGradient>
<linearGradient id="paint2_linear_11050_33433" x1="192.4" y1="42.8002" x2="232" y2="80.0002" gradientUnits="userSpaceOnUse">
<stop stop-color="#FFB74D"/>
<stop offset="0.350715" stop-color="white" stop-opacity="0"/>
</linearGradient>
<linearGradient id="paint3_linear_11050_33433" x1="121" y1="14" x2="121" y2="24" gradientUnits="userSpaceOnUse">
<stop stop-color="#C42E5B"/>
<stop offset="1" stop-color="#FF5722"/>
</linearGradient>
<linearGradient id="paint4_linear_11050_33433" x1="118" y1="102" x2="118" y2="116" gradientUnits="userSpaceOnUse">
<stop stop-color="#C42E5B"/>
<stop offset="1" stop-color="#FF5722"/>
</linearGradient>
<linearGradient id="paint5_linear_11050_33433" x1="245" y1="28" x2="245" y2="42" gradientUnits="userSpaceOnUse">
<stop stop-color="#C42E5B"/>
<stop offset="1" stop-color="#FF5722"/>
</linearGradient>
<linearGradient id="paint6_linear_11050_33433" x1="234" y1="4" x2="234" y2="12" gradientUnits="userSpaceOnUse">
<stop stop-color="#C42E5B"/>
<stop offset="1" stop-color="#FF5722"/>
</linearGradient>
<linearGradient id="paint7_linear_11050_33433" x1="165.2" y1="95.1875" x2="202.706" y2="89.0271" gradientUnits="userSpaceOnUse">
<stop stop-color="#C42E66"/>
<stop offset="1" stop-color="#D23852"/>
</linearGradient>
</defs>
</svg>
