<svg width="114" height="114" viewBox="0 0 114 114" fill="none" xmlns="http://www.w3.org/2000/svg">
<g filter="url(#filter0_dd_10989_33864)">
<circle cx="57" cy="57" r="37" fill="url(#paint0_linear_10989_33864)"/>
<circle cx="57" cy="57" r="36.5" stroke="url(#paint1_linear_10989_33864)"/>
</g>
<g clip-path="url(#clip0_10989_33864)">
<path d="M57.5351 41.2959C57.9463 41.3708 58.3659 41.4115 58.7653 41.525C61.6773 42.3526 63.5359 44.239 64.1236 47.2056C64.6675 49.9528 63.7703 52.2813 61.6709 54.1399C61.5799 54.2213 61.4846 54.2973 61.3797 54.3861C61.8893 54.5981 62.3764 54.7908 62.856 55.0017C63.1494 55.1313 63.4352 55.278 63.7147 55.4332C64.2714 55.7426 64.4641 56.3625 64.1804 56.8946C63.902 57.416 63.2886 57.6162 62.7308 57.3239C61.6837 56.7736 60.5949 56.3421 59.4344 56.1066C56.7365 55.5563 54.1488 55.8893 51.6918 57.1322C49.4007 58.2917 47.6749 60.0314 46.4908 62.3075C46.008 63.2368 45.6707 64.2228 45.4609 65.2485C45.3367 65.8544 45.7371 66.4229 46.3452 66.5321C46.4844 66.5568 46.6289 66.56 46.7713 66.56C49.4382 66.561 52.1061 66.5632 54.773 66.5589C55.1188 66.5589 55.4282 66.6338 55.6755 66.8854C56.1894 67.409 56.032 68.2794 55.3672 68.5962C55.288 68.6337 55.2066 68.6669 55.1252 68.7022C52.1275 68.7022 49.1299 68.7022 46.1322 68.7022C46.0926 68.6851 46.054 68.6605 46.0133 68.653C44.9631 68.4656 44.174 67.9036 43.6826 66.9614C43.5049 66.621 43.4214 66.2313 43.2951 65.8641C43.2951 65.5964 43.2951 65.3288 43.2951 65.0611C43.4396 64.5119 43.5552 63.953 43.7351 63.4156C45.0466 59.5004 47.5668 56.6569 51.3203 54.9204C51.7378 54.7277 52.1736 54.5735 52.6029 54.4001C52.5868 54.3733 52.5804 54.3551 52.5686 54.3433C52.4948 54.278 52.4198 54.2159 52.3459 54.1517C50.2336 52.2963 49.329 49.9624 49.8761 47.2046C50.4638 44.2379 52.3235 42.3526 55.2344 41.525C55.6338 41.4115 56.0545 41.3708 56.4645 41.2959C56.8211 41.2959 57.1786 41.2959 57.5351 41.2959ZM51.862 48.5696C51.8556 51.3521 54.1563 53.7031 56.8928 53.7106C59.808 53.7181 62.1227 51.4602 62.1377 48.5963C62.1516 45.7721 59.8444 43.4489 57.0127 43.4382C54.1895 43.4275 51.8685 45.7389 51.862 48.5696Z" fill="white"/>
<path d="M61.1754 68.7034C60.7193 68.5621 60.2407 68.4711 59.8125 68.2709C58.0685 67.4605 57.1178 65.5762 57.44 63.6438C57.743 61.8302 59.2611 60.372 61.1036 60.1343C61.3509 60.1022 61.6015 60.0883 61.8498 60.0872C63.6613 60.0829 65.4717 60.0851 67.2831 60.0851C67.3795 60.0851 67.4748 60.0851 67.6236 60.0851C67.5358 59.9866 67.4833 59.9213 67.4255 59.8635C67.0733 59.5091 66.7039 59.1708 66.3699 58.7993C65.9888 58.3764 66.0156 57.7704 66.3988 57.3668C66.781 56.9643 67.4138 56.8872 67.8238 57.2769C68.645 58.0552 69.4607 58.8464 70.2016 59.6986C70.4789 60.0176 70.5421 60.5208 70.7037 60.9405C70.7037 61.1193 70.7037 61.297 70.7037 61.4758C70.5913 62.0314 70.4179 62.5625 70.01 62.9768C69.3034 63.6941 68.5925 64.4082 67.8709 65.1105C67.6215 65.3535 67.2981 65.4327 66.9523 65.3557C66.1269 65.1715 65.8228 64.2101 66.402 63.5763C66.7682 63.1759 67.1686 62.8055 67.5519 62.4201C67.6022 62.3697 67.645 62.3109 67.7146 62.2274C65.6612 62.2274 63.6559 62.2102 61.6507 62.2348C60.7428 62.2456 60.0619 62.7059 59.7022 63.5421C59.3478 64.3653 59.4881 65.1512 60.0737 65.8353C60.4987 66.331 61.0629 66.5344 61.7064 66.5665C62.156 66.589 62.4826 66.8234 62.6485 67.2431C62.8112 67.6532 62.7374 68.045 62.429 68.3555C62.2792 68.5064 62.0586 68.5878 61.8713 68.7013C61.6389 68.7034 61.4077 68.7034 61.1754 68.7034Z" fill="white"/>
</g>
<defs>
<filter id="filter0_dd_10989_33864" x="0" y="0" width="114" height="114" filterUnits="userSpaceOnUse" color-interpolation-filters="sRGB">
<feFlood flood-opacity="0" result="BackgroundImageFix"/>
<feColorMatrix in="SourceAlpha" type="matrix" values="0 0 0 0 0 0 0 0 0 0 0 0 0 0 0 0 0 0 127 0" result="hardAlpha"/>
<feMorphology radius="4" operator="erode" in="SourceAlpha" result="effect1_dropShadow_10989_33864"/>
<feOffset dy="8"/>
<feGaussianBlur stdDeviation="4"/>
<feColorMatrix type="matrix" values="0 0 0 0 0.0627451 0 0 0 0 0.0941176 0 0 0 0 0.156863 0 0 0 0.04 0"/>
<feBlend mode="normal" in2="BackgroundImageFix" result="effect1_dropShadow_10989_33864"/>
<feColorMatrix in="SourceAlpha" type="matrix" values="0 0 0 0 0 0 0 0 0 0 0 0 0 0 0 0 0 0 127 0" result="hardAlpha"/>
<feMorphology radius="4" operator="erode" in="SourceAlpha" result="effect2_dropShadow_10989_33864"/>
<feOffset/>
<feGaussianBlur stdDeviation="12"/>
<feColorMatrix type="matrix" values="0 0 0 0 0.0627451 0 0 0 0 0.0941176 0 0 0 0 0.156863 0 0 0 0.1 0"/>
<feBlend mode="normal" in2="effect1_dropShadow_10989_33864" result="effect2_dropShadow_10989_33864"/>
<feBlend mode="normal" in="SourceGraphic" in2="effect2_dropShadow_10989_33864" result="shape"/>
</filter>
<linearGradient id="paint0_linear_10989_33864" x1="40.35" y1="71.1641" x2="98.1723" y2="61.6668" gradientUnits="userSpaceOnUse">
<stop stop-color="#C42E66"/>
<stop offset="1" stop-color="#D23852"/>
</linearGradient>
<linearGradient id="paint1_linear_10989_33864" x1="40.35" y1="71.1641" x2="98.1723" y2="61.6668" gradientUnits="userSpaceOnUse">
<stop stop-color="#C42E66"/>
<stop offset="1" stop-color="#D23852"/>
</linearGradient>
<clipPath id="clip0_10989_33864">
<rect width="27.4074" height="27.4074" fill="white" transform="translate(43.2963 41.2959)"/>
</clipPath>
</defs>
</svg>
