<svg width="272" height="278" viewBox="0 0 272 278" fill="none" xmlns="http://www.w3.org/2000/svg">
<path d="M138.837 130.067C135.303 133.396 130.72 134.273 128.602 132.024C126.483 129.774 127.63 125.252 131.164 121.922C132.711 120.465 134.459 119.478 136.113 119.017L151.266 105.096L157.647 112.345L142.032 125.299C141.474 126.923 140.384 128.609 138.837 130.067Z" fill="#FFB6B6"/>
<path d="M218.553 273.326L211.248 273.325L207.773 245.15L218.554 245.151L218.553 273.326Z" fill="#FFB6B6"/>
<path d="M193.527 273.159C193.299 273.542 193.179 274.778 193.179 275.224C193.179 276.593 194.289 277.703 195.658 277.703H218.279C219.213 277.703 219.971 276.946 219.971 276.012V275.07C219.971 275.07 221.09 272.239 218.786 268.751C218.786 268.751 215.922 271.482 211.644 267.204L210.382 264.918L201.248 271.598L196.186 272.221C195.078 272.357 194.096 272.2 193.527 273.159Z" fill="#2F2E41"/>
<path d="M269.797 269.176L262.615 270.509L254.054 243.442L264.654 241.475L269.797 269.176Z" fill="#FFB6B6"/>
<path d="M245.162 273.581C245.008 273.999 245.116 275.236 245.197 275.674C245.447 277.02 246.741 277.909 248.087 277.659L270.328 273.528C271.246 273.358 271.852 272.475 271.682 271.557L271.51 270.631C271.51 270.631 272.093 267.643 269.191 264.634C269.191 264.634 266.875 267.843 261.887 264.417L260.229 262.4L252.469 270.635L247.605 272.173C246.541 272.509 245.547 272.533 245.162 273.581Z" fill="#2F2E41"/>
<path d="M251.898 134.088L269.89 254.552L253.141 256.736L224.013 161.34L220.371 259.649H204.761C204.761 259.649 191.277 151.145 195.265 138.037C199.253 124.93 251.898 134.088 251.898 134.088Z" fill="#2F2E41"/>
<path d="M213.089 37.543H230.567L233.115 43.7328C233.115 43.7328 243.31 49.5585 243.31 51.7431C243.31 53.9278 249.5 108.908 249.5 108.908L252.777 139.129C252.777 139.129 214.546 158.426 195.612 138.765L199.253 105.267C199.253 105.267 196.341 52.8355 197.797 50.6508C199.253 48.4662 210.177 43.3687 210.177 43.3687L213.089 37.543Z" fill="#E4E4E4"/>
<path d="M207.623 46.936C207.623 46.936 212.949 54.985 211.268 58.2961C209.588 61.6072 183.36 93.384 183.36 93.384L151.716 119.444L142.44 111.213L172.247 82.7786L191.506 54.3759C194.571 48.5295 201.185 45.4762 207.623 46.936Z" fill="#E4E4E4"/>
<path d="M267.719 151.551C268.48 156.347 266.622 160.627 263.571 161.111C260.519 161.595 257.428 158.1 256.667 153.304C256.334 151.205 256.503 149.205 257.054 147.578L254.085 127.217L263.67 126.027L265.579 146.226C266.606 147.602 267.386 149.452 267.719 151.551Z" fill="#FFB6B6"/>
<path d="M230.441 47.7295C230.441 47.7295 245.512 44.3566 248.25 52.714C250.987 61.0714 267.44 140.344 267.44 140.344L254.907 141.732L245.495 87.4219L230.441 47.7295Z" fill="#E4E4E4"/>
<path d="M222.427 33.4877C230.726 33.4877 237.453 26.7603 237.453 18.4616C237.453 10.1629 230.726 3.43555 222.427 3.43555C214.129 3.43555 207.401 10.1629 207.401 18.4616C207.401 26.7603 214.129 33.4877 222.427 33.4877Z" fill="#FFB6B6"/>
<path d="M231.218 31.2208C230.255 31.2676 228.983 31.0841 228.822 30.1331C228.708 29.4622 229.274 28.884 229.806 28.4603C230.549 27.8696 231.332 27.3189 231.97 26.6167C232.608 25.9145 233.099 25.0264 233.111 24.0778C233.123 23.1291 232.558 22.1393 231.65 21.8632C230.743 21.5871 229.61 22.262 229.597 23.2107C228.722 21.8818 228.606 20.2073 228.56 18.6169C228.533 17.6862 228.521 16.7551 228.524 15.824C228.528 14.5521 228.561 13.2804 228.593 12.0088C227.967 11.9759 222.92 13.8751 222.192 13.8751C221.565 13.8751 216.534 12.8763 216.869 11.4429C216.77 12.359 211.97 14.0092 211.872 13.5297C211.774 13.0502 211.416 12.5441 210.928 12.5727C210.413 12.6029 210.133 13.1738 209.96 13.6598C209.573 14.7449 208.634 16.6202 207.628 16.0597C200.011 11.8178 206.152 10.4966 207.055 8.77153C208.164 6.65096 209.347 4.44476 211.321 3.09193C213.295 1.73909 214.853 0.123778 216.408 1.94284C220.309 -0.900571 224.179 -0.214696 228.725 1.40672C233.272 3.02813 236.909 6.99531 238.13 11.6653C238.69 13.8059 240.19 14.7452 239.072 16.6549C240.304 18.3066 239.637 17.3721 239.88 19.4179C240.072 21.032 239.911 22.7358 239.111 24.1506C238.256 25.662 236.742 26.7135 235.124 27.3437C233.506 27.9739 233.226 31.1391 231.508 31.3869" fill="#2F2E41"/>
<path d="M78.0403 199.419L77.9415 197.965C80.7825 197.772 83.631 197.383 86.4077 196.808L86.7028 198.235C83.8614 198.823 80.9471 199.221 78.0403 199.419ZM69.2875 199.289C66.3487 199.025 63.4437 198.604 60.6535 198.038L60.943 196.61C63.6809 197.166 66.5326 197.579 69.4184 197.838L69.2875 199.289ZM95.1238 195.876L94.6353 194.504C97.312 193.552 99.9479 192.404 102.471 191.093L103.142 192.386C100.561 193.727 97.8628 194.901 95.1238 195.876ZM52.2161 195.785C49.4263 194.849 46.7065 193.732 44.1325 192.462L44.7761 191.157C47.2921 192.396 49.9508 193.489 52.6791 194.404L52.2161 195.785ZM36.5819 188.05C34.1775 186.401 31.878 184.564 29.7478 182.587L30.7384 181.519C32.8164 183.447 35.0597 185.24 37.4054 186.848L36.5819 188.05ZM110.605 187.836L109.763 186.647C112.083 185.006 114.312 183.19 116.388 181.25L117.382 182.313C115.258 184.298 112.978 186.156 110.605 187.836ZM23.7852 176.173C21.9732 173.911 20.3027 171.486 18.8207 168.964L20.0766 168.226C21.523 170.688 23.1534 173.055 24.9216 175.262L23.7852 176.173ZM123.351 175.925L122.222 175.004C124.019 172.798 125.679 170.449 127.157 168.024L128.4 168.782C126.889 171.263 125.19 173.666 123.351 175.925ZM14.9258 161.132C13.8203 158.461 12.8805 155.673 12.1327 152.846L13.5408 152.473C14.2719 155.238 15.1906 157.964 16.2712 160.574L14.9258 161.132ZM132.43 161.018L131.095 160.436C132.229 157.831 133.192 155.12 133.958 152.379L135.36 152.772C134.576 155.576 133.591 158.351 132.43 161.018ZM10.4526 144.266C10.0804 141.388 9.89012 138.453 9.88763 135.543L11.3441 135.542C11.3466 138.39 11.5325 141.263 11.897 144.079L10.4526 144.266ZM137.13 144.208L135.687 144.012C136.069 141.205 136.263 138.336 136.263 135.485L136.262 135.354H137.719L137.719 135.48C137.719 138.402 137.521 141.336 137.13 144.208ZM11.8824 127.004L10.4373 126.819C10.8068 123.926 11.3668 121.038 12.1021 118.237L13.5109 118.607C12.7916 121.347 12.2437 124.172 11.8824 127.004ZM135.67 126.83C135.28 124.012 134.692 121.198 133.923 118.465L135.325 118.071C136.113 120.867 136.714 123.747 137.113 126.631L135.67 126.83ZM16.2264 110.502L14.8795 109.947C15.9935 107.242 17.2985 104.606 18.7578 102.112L20.0151 102.847C18.5892 105.284 17.3145 107.859 16.2264 110.502ZM131.045 110.419C129.909 107.821 128.58 105.274 127.097 102.848L128.339 102.088C129.858 104.57 131.217 107.177 132.38 109.836L131.045 110.419ZM122.152 95.8807C120.354 93.6812 118.388 91.5833 116.307 89.6458L117.3 88.5798C119.429 90.5624 121.441 92.7087 123.28 94.9591L122.152 95.8807ZM24.8441 95.8043L23.7056 94.8962C25.525 92.6152 27.5248 90.4547 29.6486 88.4745L30.6421 89.5398C28.5698 91.4716 26.6191 93.5791 24.8441 95.8043ZM109.671 84.2585C107.345 82.6189 104.886 81.1262 102.364 79.8216L103.033 78.5281C105.614 79.8629 108.13 81.3904 110.511 83.068L109.671 84.2585ZM37.2966 84.1963L36.4703 82.9966C38.8494 81.3581 41.3864 79.8679 44.0109 78.5668L44.6581 79.8718C42.0951 81.1419 39.6185 82.5969 37.2966 84.1963ZM52.5539 76.6073L52.0881 75.2273C54.7926 74.3149 57.6301 73.5515 60.5216 72.9591L60.8139 74.3856C57.981 74.9663 55.2019 75.7137 52.5539 76.6073ZM94.5183 76.4245C91.8391 75.4769 89.067 74.7071 86.2793 74.1353L86.5716 72.7088C89.4247 73.2937 92.2618 74.0816 95.004 75.0513L94.5183 76.4245ZM69.2865 73.1436L69.1535 71.6936C70.6113 71.5599 72.1101 71.4621 73.6081 71.4031C75.0254 71.3864 76.4943 71.4493 77.9059 71.5421L77.8106 72.9957C76.4303 72.9047 75.0261 72.8588 73.6369 72.8588C72.1926 72.9164 70.7194 73.0128 69.2865 73.1436Z" fill="#3F3D56"/>
<path d="M24.5248 193.704C35.3837 193.704 44.1866 184.902 44.1866 174.043C44.1866 163.184 35.3837 154.381 24.5248 154.381C13.6659 154.381 4.86304 163.184 4.86304 174.043C4.86304 184.902 13.6659 193.704 24.5248 193.704Z" fill="#C42F67"/>
<path d="M83.51 92.4837C94.3689 92.4837 103.172 83.6808 103.172 72.8219C103.172 61.963 94.3689 53.1602 83.51 53.1602C72.6511 53.1602 63.8483 61.963 63.8483 72.8219C63.8483 83.6808 72.6511 92.4837 83.51 92.4837Z" fill="#C42F67"/>
<path d="M19.9513 123.232C30.8102 123.232 39.6131 114.429 39.6131 103.57C39.6131 92.7111 30.8102 83.9082 19.9513 83.9082C9.09242 83.9082 0.289551 92.7111 0.289551 103.57C0.289551 114.429 9.09242 123.232 19.9513 123.232Z" fill="#C42F67"/>
<path d="M16.7781 110.506C23.2205 110.506 26.7448 105.168 26.7448 100.547C26.7448 100.398 26.7448 100.246 26.7384 100.097C27.4245 99.6001 28.0167 98.9852 28.4871 98.2808C27.8462 98.5634 27.167 98.7496 26.4716 98.8335C27.2041 98.3956 27.7528 97.7067 28.0155 96.8948C27.3273 97.3025 26.5741 97.5887 25.7887 97.7409C24.4633 96.3293 22.2444 96.2595 20.8328 97.5849C19.9212 98.4409 19.5345 99.7175 19.8179 100.935C17.0014 100.794 14.3771 99.4644 12.5976 97.2768C11.6706 98.8779 12.1458 100.924 13.6838 101.952C13.1285 101.933 12.5854 101.784 12.0983 101.517V101.565C12.1002 103.231 13.2739 104.666 14.9066 104.999C14.606 105.081 14.2954 105.123 13.9836 105.121C13.7638 105.122 13.5444 105.102 13.3285 105.06C13.7874 106.487 15.1028 107.463 16.6009 107.49C15.3596 108.465 13.8261 108.994 12.2477 108.991C11.9695 108.992 11.6916 108.976 11.4154 108.943C13.0175 109.965 14.8781 110.507 16.7781 110.506Z" fill="white"/>
<path d="M89.3358 215.552C100.195 215.552 108.998 206.749 108.998 195.89C108.998 185.031 100.195 176.229 89.3358 176.229C78.4769 176.229 69.6741 185.031 69.6741 195.89C69.6741 206.749 78.4769 215.552 89.3358 215.552Z" fill="#C42F67"/>
<path d="M133.028 174.044C143.887 174.044 152.69 165.241 152.69 154.382C152.69 143.524 143.887 134.721 133.028 134.721C122.169 134.721 113.367 143.524 113.367 154.382C113.367 165.241 122.169 174.044 133.028 174.044Z" fill="#C42F67"/>
<path d="M83.5293 73.6266C83.965 73.6266 84.3182 73.2734 84.3182 72.8377C84.3182 72.402 83.965 72.0488 83.5293 72.0488C83.0936 72.0488 82.7404 72.402 82.7404 72.8377C82.7404 73.2734 83.0936 73.6266 83.5293 73.6266Z" fill="white"/>
<path d="M86.6847 73.6266C87.1204 73.6266 87.4736 73.2734 87.4736 72.8377C87.4736 72.402 87.1204 72.0488 86.6847 72.0488C86.249 72.0488 85.8958 72.402 85.8958 72.8377C85.8958 73.2734 86.249 73.6266 86.6847 73.6266Z" fill="white"/>
<path d="M80.3737 73.6266C80.8094 73.6266 81.1626 73.2734 81.1626 72.8377C81.1626 72.402 80.8094 72.0488 80.3737 72.0488C79.938 72.0488 79.5848 72.402 79.5848 72.8377C79.5848 73.2734 79.938 73.6266 80.3737 73.6266Z" fill="white"/>
<path d="M89.1067 67.2605C87.8123 65.9576 86.1038 65.1472 84.276 64.9689C82.4481 64.7906 80.6153 65.2557 79.0935 66.2839C77.5717 67.3121 76.4564 68.8391 75.9398 70.6015C75.4232 72.3639 75.5376 74.2513 76.2634 75.9383C76.3391 76.0951 76.3639 76.2717 76.3344 76.4432L75.6402 79.7803C75.6134 79.9082 75.6189 80.0408 75.6561 80.1661C75.6933 80.2914 75.761 80.4055 75.8532 80.4982C75.9288 80.5732 76.0188 80.6322 76.1177 80.6715C76.2167 80.7108 76.3226 80.7297 76.4291 80.727H76.5869L79.9633 80.0485C80.135 80.0279 80.309 80.0523 80.4682 80.1195C82.1553 80.8453 84.0427 80.9598 85.8051 80.4431C87.5675 79.9265 89.0945 78.8112 90.1227 77.2894C91.1509 75.7677 91.6159 73.9349 91.4377 72.107C91.2594 70.2791 90.449 68.5707 89.1461 67.2762L89.1067 67.2605ZM89.7615 73.8557C89.6072 74.7976 89.2413 75.6923 88.6914 76.4724C88.1414 77.2524 87.4216 77.8976 86.5863 78.3594C85.7509 78.8211 84.8217 79.0873 83.8686 79.138C82.9154 79.1888 81.9632 79.0226 81.0836 78.6522C80.7716 78.5195 80.4365 78.4497 80.0975 78.447C79.9494 78.4481 79.8016 78.4613 79.6557 78.4865L77.431 78.9362L77.8807 76.7115C77.9702 76.2297 77.9125 75.7321 77.715 75.2836C77.3445 74.4039 77.1784 73.4517 77.2291 72.4986C77.2798 71.5454 77.5461 70.6162 78.0078 69.7809C78.4695 68.9455 79.1147 68.2258 79.8948 67.6758C80.6749 67.1258 81.5696 66.7599 82.5115 66.6057C83.5002 66.4434 84.5133 66.5189 85.4671 66.8258C86.4208 67.1328 87.2878 67.6624 87.9963 68.3709C88.7047 69.0793 89.2344 69.9463 89.5413 70.9001C89.8483 71.8538 89.9237 72.8669 89.7615 73.8557Z" fill="white"/>
<path d="M26.0415 166.882C24.1761 166.703 22.3078 167.193 20.7712 168.266C19.2346 169.339 18.1301 170.924 17.6556 172.737C17.181 174.55 17.3673 176.472 18.1811 178.161C18.9949 179.849 20.3831 181.192 22.097 181.95C23.0896 182.399 24.1634 182.64 25.2526 182.66C26.9866 182.66 28.6723 182.089 30.0491 181.035C30.2153 180.908 30.3244 180.721 30.3525 180.513C30.3806 180.306 30.3254 180.097 30.199 179.93C30.1362 179.847 30.0575 179.777 29.9674 179.724C29.8773 179.671 29.7776 179.637 29.6741 179.623C29.5707 179.609 29.4655 179.616 29.3646 179.643C29.2638 179.67 29.1693 179.717 29.0867 179.78C28.2685 180.398 27.312 180.808 26.3001 180.973C25.2881 181.138 24.2511 181.055 23.2788 180.729C22.3065 180.403 21.4281 179.846 20.7197 179.104C20.0114 178.363 19.4943 177.46 19.2132 176.474C18.9322 175.488 18.8956 174.448 19.1067 173.445C19.3178 172.442 19.7702 171.505 20.4248 170.716C21.0793 169.926 21.9164 169.308 22.8634 168.915C23.8104 168.522 24.839 168.366 25.8601 168.46C27.4447 168.643 28.9051 169.408 29.9586 170.605C31.0122 171.803 31.5841 173.349 31.5638 174.944V175.481C31.5629 175.662 31.5255 175.841 31.4538 176.008C31.3821 176.174 31.2776 176.324 31.1465 176.45C31.0154 176.575 30.8605 176.672 30.6909 176.736C30.5214 176.8 30.3406 176.829 30.1596 176.822C29.7984 176.782 29.4657 176.607 29.2286 176.332C28.9914 176.057 28.8674 175.702 28.8815 175.339V171.931C28.8815 171.722 28.7984 171.521 28.6505 171.373C28.5025 171.225 28.3019 171.142 28.0926 171.142C27.9 171.14 27.7135 171.209 27.5681 171.336C27.4228 171.462 27.3288 171.637 27.3037 171.828C26.5696 171.137 25.5984 170.753 24.5899 170.755C23.9045 170.76 23.2318 170.941 22.6359 171.28C22.04 171.618 21.5407 172.104 21.1856 172.69C20.8304 173.276 20.6313 173.944 20.6071 174.629C20.5828 175.314 20.7344 175.994 21.0472 176.603C21.3601 177.213 21.8238 177.733 22.3943 178.113C22.9648 178.493 23.6231 178.72 24.3064 178.774C24.9898 178.827 25.6754 178.705 26.2981 178.419C26.9208 178.132 27.4599 177.691 27.8639 177.138C28.0928 177.492 28.3979 177.791 28.7568 178.012C29.1156 178.234 29.5194 178.373 29.9387 178.419C30.358 178.465 30.7822 178.417 31.1807 178.279C31.5792 178.14 31.9418 177.915 32.2422 177.619C32.5314 177.344 32.7606 177.012 32.9154 176.644C33.0701 176.276 33.1471 175.88 33.1416 175.481V174.944C33.1592 172.962 32.4444 171.043 31.1341 169.555C29.8238 168.067 28.0103 167.115 26.0415 166.882ZM24.6057 177.209C24.1236 177.209 23.6523 177.066 23.2514 176.798C22.8505 176.53 22.5381 176.149 22.3536 175.704C22.1691 175.258 22.1208 174.768 22.2149 174.295C22.3089 173.822 22.5411 173.388 22.882 173.047C23.2229 172.706 23.6573 172.474 24.1301 172.38C24.603 172.286 25.0931 172.334 25.5386 172.519C25.984 172.703 26.3647 173.016 26.6326 173.417C26.9004 173.817 27.0434 174.289 27.0434 174.771C27.0413 175.417 26.7838 176.036 26.3271 176.492C25.8704 176.949 25.2516 177.206 24.6057 177.209Z" fill="white"/>
<path d="M90.1253 203.778H86.9697C86.7605 203.778 86.5598 203.695 86.4118 203.547C86.2639 203.399 86.1808 203.198 86.1808 202.989V198.098H84.603C84.3938 198.098 84.1931 198.015 84.0451 197.867C83.8972 197.719 83.8141 197.518 83.8141 197.309V194.469C83.8141 194.26 83.8972 194.059 84.0451 193.911C84.1931 193.763 84.3938 193.68 84.603 193.68H86.1808V192.339C86.2361 191.137 86.7651 190.006 87.6521 189.193C88.5391 188.379 89.7119 187.951 90.9142 188H93.2809C93.4901 188 93.6908 188.083 93.8387 188.231C93.9866 188.379 94.0698 188.58 94.0698 188.789V191.629C94.0698 191.838 93.9866 192.039 93.8387 192.187C93.6908 192.335 93.4901 192.418 93.2809 192.418H90.9142V193.68H93.2809C93.4027 193.679 93.523 193.706 93.6325 193.76C93.742 193.813 93.8377 193.891 93.912 193.988C93.9855 194.086 94.0351 194.199 94.057 194.32C94.0789 194.44 94.0725 194.564 94.0382 194.682L93.2493 197.522C93.2016 197.693 93.0978 197.842 92.9547 197.947C92.8116 198.051 92.6375 198.104 92.4604 198.098H90.9142V202.989C90.9142 203.198 90.8311 203.399 90.6831 203.547C90.5352 203.695 90.3345 203.778 90.1253 203.778ZM87.7586 202.2H89.3364V197.309C89.3364 197.1 89.4195 196.899 89.5674 196.751C89.7154 196.603 89.916 196.52 90.1253 196.52H91.8924L92.2395 195.258H90.1253C89.916 195.258 89.7154 195.175 89.5674 195.027C89.4195 194.879 89.3364 194.678 89.3364 194.469V192.339C89.3566 191.934 89.5318 191.553 89.8255 191.274C90.1192 190.995 90.509 190.839 90.9142 190.84H92.492V189.578H90.9142C90.1306 189.53 89.3599 189.793 88.7691 190.31C88.1784 190.827 87.8153 191.556 87.7586 192.339V194.469C87.7586 194.678 87.6755 194.879 87.5275 195.027C87.3796 195.175 87.1789 195.258 86.9697 195.258H85.3919V196.52H86.9697C87.1789 196.52 87.3796 196.603 87.5275 196.751C87.6755 196.899 87.7586 197.1 87.7586 197.309V202.2Z" fill="#FFFDFD"/>
<path d="M137.762 152.015H135.395V149.388C135.393 148.83 135.171 148.295 134.776 147.9C134.382 147.506 133.847 147.283 133.289 147.281H128.035C127.477 147.283 126.942 147.506 126.548 147.9C126.153 148.295 125.931 148.83 125.929 149.388V154.642C125.931 155.2 126.153 155.734 126.548 156.129C126.942 156.523 127.477 156.746 128.035 156.748H130.662V159.115C130.662 159.742 130.911 160.344 131.355 160.788C131.799 161.232 132.401 161.481 133.029 161.481H137.762C138.39 161.481 138.992 161.232 139.436 160.788C139.879 160.344 140.129 159.742 140.129 159.115V154.381C140.129 153.754 139.879 153.152 139.436 152.708C138.992 152.264 138.39 152.015 137.762 152.015ZM130.662 154.381V155.17H128.035C127.895 155.17 127.76 155.115 127.661 155.015C127.562 154.916 127.506 154.782 127.506 154.642V149.388C127.506 149.247 127.562 149.113 127.661 149.014C127.76 148.915 127.895 148.859 128.035 148.859H133.289C133.429 148.859 133.564 148.915 133.663 149.014C133.762 149.113 133.818 149.247 133.818 149.388V152.015H133.029C132.401 152.015 131.799 152.264 131.355 152.708C130.911 153.152 130.662 153.754 130.662 154.381Z" fill="white"/>
</svg>
