<svg width="20" height="20" viewBox="0 0 20 20" fill="none" xmlns="http://www.w3.org/2000/svg">
<path d="M8.80639 0.736215L0.141795 18.0687C-0.299851 18.9554 0.343453 19.9986 1.33507 19.9986H18.6643C19.6559 19.9986 20.3008 18.9554 19.8575 18.0687L11.1929 0.736215C10.7013 -0.245405 9.29803 -0.245405 8.80639 0.736215Z" fill="url(#paint0_linear_11246_34118)"/>
<g opacity="0.2">
<path d="M9.99967 0.499977C10.3213 0.499977 10.6013 0.671635 10.7446 0.959955L19.4092 18.2925C19.5409 18.5558 19.5275 18.8524 19.3726 19.1024C19.2176 19.3541 18.9592 19.4974 18.6643 19.4974H1.33507C1.04009 19.4974 0.781765 19.3541 0.626773 19.1024C0.47178 18.8508 0.458447 18.5558 0.590108 18.2925L9.2547 0.959955C9.39803 0.671635 9.67801 0.499977 9.99967 0.499977ZM9.99967 0C9.52635 0 9.05304 0.244989 8.80639 0.736632L0.141795 18.0692C-0.299851 18.9558 0.343453 19.9991 1.33507 19.9991H18.6643C19.6559 19.9991 20.3008 18.9558 19.8575 18.0692L11.1929 0.736632C10.9463 0.244989 10.473 0 9.99967 0Z" fill="#424242"/>
</g>
<g opacity="0.2">
<path d="M9.99967 4.99998C10.7713 4.99998 11.3813 5.60995 11.3296 6.32991L10.7596 14.3345C10.733 14.7079 10.4013 14.9995 9.99967 14.9995C9.59802 14.9995 9.26637 14.7079 9.2397 14.3345L8.66973 6.32991C8.61807 5.60995 9.22804 4.99998 9.99967 4.99998ZM9.99967 4.5C9.47636 4.5 8.97638 4.71332 8.62807 5.08664C8.29975 5.43996 8.13642 5.89327 8.16975 6.36491L8.73973 14.3695C8.78639 15.0028 9.3397 15.4995 9.99967 15.4995C10.6596 15.4995 11.2129 15.0028 11.2579 14.3695L11.8279 6.36491C11.8612 5.89327 11.6996 5.43996 11.3696 5.08664C11.023 4.71332 10.523 4.5 9.99967 4.5Z" fill="#424242"/>
<path d="M9.99969 15.666C10.5513 15.666 10.9996 16.1143 10.9996 16.6659C10.9996 17.2176 10.5513 17.6659 9.99969 17.6659C9.44804 17.6659 8.99973 17.2176 8.99973 16.6659C8.99973 16.1143 9.44804 15.666 9.99969 15.666ZM9.99969 15.166C9.17306 15.166 8.49976 15.8393 8.49976 16.6659C8.49976 17.4926 9.17306 18.1659 9.99969 18.1659C10.8263 18.1659 11.4996 17.4926 11.4996 16.6659C11.4996 15.8393 10.8263 15.166 9.99969 15.166Z" fill="#424242"/>
</g>
<path d="M9.99965 5C10.7713 5 11.3813 5.60997 11.3296 6.32994L10.7596 14.3346C10.7329 14.7079 10.4013 14.9995 9.99965 14.9995C9.598 14.9995 9.26635 14.7079 9.23969 14.3346L8.66971 6.32994C8.61805 5.60997 9.22802 5 9.99965 5Z" fill="url(#paint1_linear_11246_34118)"/>
<path d="M9.99962 17.6659C10.5519 17.6659 10.9996 17.2182 10.9996 16.666C10.9996 16.1137 10.5519 15.666 9.99962 15.666C9.44736 15.666 8.99966 16.1137 8.99966 16.666C8.99966 17.2182 9.44736 17.6659 9.99962 17.6659Z" fill="url(#paint2_linear_11246_34118)"/>
<defs>
<linearGradient id="paint0_linear_11246_34118" x1="9.99967" y1="5.49932" x2="9.99967" y2="21.1386" gradientUnits="userSpaceOnUse">
<stop stop-color="#FFEB3B"/>
<stop offset="0.419" stop-color="#FFDC28"/>
<stop offset="0.9954" stop-color="#FFC107"/>
</linearGradient>
<linearGradient id="paint1_linear_11246_34118" x1="9.99965" y1="4.70835" x2="9.99965" y2="17.8227" gradientUnits="userSpaceOnUse">
<stop stop-color="#424242"/>
<stop offset="1" stop-color="#212121"/>
</linearGradient>
<linearGradient id="paint2_linear_11246_34118" x1="9.99962" y1="4.7082" x2="9.99962" y2="17.8226" gradientUnits="userSpaceOnUse">
<stop stop-color="#424242"/>
<stop offset="1" stop-color="#212121"/>
</linearGradient>
</defs>
</svg>
