<svg width="250" height="236" viewBox="0 0 250 236" fill="none" xmlns="http://www.w3.org/2000/svg">
<path d="M0 232.024C0 232.188 0.131589 232.319 0.295455 232.319H249.705C249.868 232.319 250 232.188 250 232.024C250 231.86 249.868 231.729 249.705 231.729H0.295455C0.131589 231.729 0 231.86 0 232.024Z" fill="#3F3D56"/>
<path d="M164.679 215.717V225.481L172.061 225.719L171.754 215.717H164.679Z" fill="#FFAFAF"/>
<path d="M163.218 221.15C163.118 221.15 163.021 221.163 162.926 221.19C161.593 221.571 153.881 228.456 151.549 230.558C151.261 230.817 151.108 231.188 151.129 231.575C151.15 231.96 151.342 232.31 151.654 232.535C153.423 233.809 157.046 235.824 161.442 235.009C163.465 234.635 165.505 234.399 167.306 234.191C171.16 233.746 174.205 233.395 174.205 232.03C174.205 229.715 173.568 223.613 172.769 223.357C172.696 223.335 172.612 223.391 172.516 223.527C171.293 225.238 167.094 224.327 166.916 224.288L166.869 224.277L166.842 224.238C166.82 224.205 164.764 221.15 163.218 221.15Z" fill="#2F2E41"/>
<path d="M150.866 215.717V225.481L158.249 225.719L157.941 215.717H150.866Z" fill="#FFAFAF"/>
<path d="M145.596 235.435C142.208 235.435 139.455 233.937 137.985 232.928C137.541 232.623 137.266 232.139 137.231 231.599C137.196 231.055 137.408 230.534 137.813 230.169C141.462 226.887 147.774 221.326 149.048 220.962C150.699 220.489 152.915 223.647 153.201 224.066C153.662 224.16 157.443 224.883 158.509 223.389C158.713 223.104 158.904 223.091 159.029 223.131C160.169 223.497 160.631 230.836 160.631 232.031C160.631 233.608 157.648 233.952 153.521 234.429C151.724 234.636 149.688 234.871 147.673 235.244C146.959 235.377 146.265 235.435 145.596 235.435Z" fill="#2F2E41"/>
<path d="M117.746 102.38C116.485 99.5934 116.959 96.6758 118.806 95.8636C120.653 95.0515 123.172 96.6523 124.434 99.4402C124.954 100.547 125.19 101.763 125.123 102.988L130.313 114.864L124.459 117.213L119.964 105.256C118.995 104.487 118.234 103.501 117.746 102.38Z" fill="#FFAFAF"/>
<path d="M153.612 107.425C156.776 110.408 156.578 115.499 153.192 118.227L136.609 131.589C134.799 133.047 132.113 132.532 130.971 130.507C126.613 123.452 125.791 123.065 123.258 115.834L130.401 113.335L134.429 118.378L143.222 108.005C145.879 104.87 150.622 104.605 153.612 107.425Z" fill="#E4E4E4"/>
<path d="M89.5851 89.3807V84.123H37.4866V89.3807H89.5851Z" fill="#2F2E41"/>
<path d="M221.504 89.3807V84.123H169.405V89.3807H221.504Z" fill="#2F2E41"/>
<path d="M66.3471 65.9629H57.4401C53.9857 65.9629 51.1853 68.7633 51.1853 72.2177V105.111C51.1853 108.566 53.9857 111.366 57.4401 111.366H66.3471C69.8016 111.366 72.6019 108.566 72.6019 105.111V72.2177C72.6019 68.7633 69.8016 65.9629 66.3471 65.9629Z" fill="#3F3D56"/>
<path d="M206.84 65.9629H197.933C194.479 65.9629 191.678 68.7633 191.678 72.2177V105.111C191.678 108.566 194.479 111.366 197.933 111.366H206.84C210.294 111.366 213.095 108.566 213.095 105.111V72.2177C213.095 68.7633 210.294 65.9629 206.84 65.9629Z" fill="#3F3D56"/>
<path d="M201.195 100.23H65.1652C60.4359 100.23 56.3893 96.8524 55.5433 92.1998L50.3412 63.5881C48.0788 51.1451 52.7664 38.4679 62.577 30.4906L72.8347 8.42108C75.2124 3.30535 80.3939 0 86.0351 0H162.661C166.734 0 170.648 1.72337 173.399 4.72839L192.247 25.3222C206.037 34.6146 213.86 50.6858 212.667 67.2724L210.949 91.1519C210.583 96.2421 206.298 100.23 201.195 100.23Z" fill="#DFDFDF"/>
<path d="M201.195 100.23H65.1652C60.4359 100.23 56.3893 96.8524 55.5433 92.1998L50.3412 63.5881C48.0788 51.1451 52.7664 38.4679 62.577 30.4906L72.8347 8.42108C75.2124 3.30535 80.3939 0 86.0351 0H162.661C166.734 0 170.648 1.72337 173.399 4.72839L192.247 25.3222C206.037 34.6146 213.86 50.6858 212.667 67.2724L210.949 91.1519C210.583 96.2421 206.298 100.23 201.195 100.23Z" fill="url(#paint0_linear_10991_34367)"/>
<path d="M177.979 28.4837H75.2073C73.4224 28.4837 71.7754 27.5906 70.8015 26.0952C69.8276 24.5994 69.6772 22.7317 70.3991 21.0995L75.8161 8.85232C76.6406 6.98841 78.4898 5.75988 80.5269 5.72266L168.137 5.82932C169.805 5.81845 171.398 6.56928 172.41 7.89067L182.154 20.0312C183.379 21.6316 183.585 23.7477 182.693 25.5548C181.801 27.3614 179.994 28.4837 177.979 28.4837Z" fill="white"/>
<path d="M193.392 60.822C198.359 60.822 202.387 56.7948 202.387 51.827C202.387 46.8592 198.359 42.832 193.392 42.832C188.424 42.832 184.397 46.8592 184.397 51.827C184.397 56.7948 188.424 60.822 193.392 60.822Z" fill="white"/>
<path d="M75.1719 60.822C80.1397 60.822 84.1669 56.7948 84.1669 51.827C84.1669 46.8592 80.1397 42.832 75.1719 42.832C70.2041 42.832 66.1769 46.8592 66.1769 51.827C66.1769 56.7948 70.2041 60.822 75.1719 60.822Z" fill="white"/>
<path d="M184.611 85.4526H86.5227V85.2384C86.5227 80.1604 90.6539 76.0293 95.7319 76.0293H175.402C180.48 76.0293 184.611 80.1604 184.611 85.2384V85.4526Z" fill="#3F3D56"/>
<path d="M64.0186 32.3783C63.4878 32.3783 62.9559 32.2093 62.5094 31.868L58.918 29.1223C58.5614 28.8496 58.1177 28.6994 57.6686 28.6994H49.8257C48.9283 28.6994 48.1242 28.2359 47.6746 27.4591C47.225 26.6828 47.2234 25.7546 47.6701 24.9766L49.5847 21.6411C49.9672 20.9748 50.6501 20.5163 51.4118 20.4147L61.2244 19.1062C62.4474 18.9439 63.586 19.6831 63.936 20.8643L66.4021 29.1875C66.6737 30.104 66.3889 31.1079 65.6766 31.7458C65.2072 32.1658 64.6136 32.3783 64.0186 32.3783Z" fill="#2F2E41"/>
<path d="M191.266 30.6639C190.671 30.6639 190.078 30.4514 189.608 30.0314C188.896 29.3935 188.611 28.3896 188.883 27.4732L191.349 19.15C191.699 17.9679 192.84 17.2262 194.061 17.3923L203.873 18.7003C204.635 18.8019 205.318 19.2604 205.7 19.9267L207.615 23.2622C208.062 24.0402 208.06 24.9684 207.61 25.7448C207.161 26.5215 206.357 26.985 205.459 26.985H197.616C197.167 26.985 196.724 27.1352 196.367 27.4079L192.776 30.1536C192.329 30.4949 191.797 30.6639 191.266 30.6639Z" fill="#2F2E41"/>
<path d="M42.7442 16.252H37.4866V231.815H42.7442V16.252Z" fill="#C42F67"/>
<path d="M224.372 16.252H219.114V231.815H224.372V16.252Z" fill="#C42F67"/>
<path d="M147.89 145.824L143.96 148.801L143.246 182.379L149.914 219.053L158.606 219.411L158.844 184.403L170.037 152.492L167.775 144.99L147.89 145.824Z" fill="#2F2E41"/>
<path d="M166.227 151.539L170.037 152.492L172.776 219.053L162.893 218.22L156.344 171.186L166.227 151.539Z" fill="#2F2E41"/>
<path d="M156.055 102.33L158.767 107.795L148.515 112.746L148.641 103.986L156.055 102.33Z" fill="#FFAFAF"/>
<path d="M148.552 106.465C153.647 106.465 157.777 102.335 157.777 97.2405C157.777 92.1457 153.647 88.0156 148.552 88.0156C143.457 88.0156 139.327 92.1457 139.327 97.2405C139.327 102.335 143.457 106.465 148.552 106.465Z" fill="#FFAFAF"/>
<path d="M148.49 110.615L157.949 105.025C164.886 109.891 170.663 111.029 170.847 119.5L169.568 139.708L169.643 148.411C169.675 152.064 166.722 155.042 163.068 155.042H149.562C145.987 155.042 143.324 151.745 144.077 148.251L146.627 136.411L143.904 113.338L148.49 110.615Z" fill="#E4E4E4"/>
<path d="M158.038 101.88L156.333 103.102C156.333 103.102 155.831 97.7769 155.138 97.5406C154.446 97.3043 153.512 98.5317 153.512 98.5317L152.829 100.531L150.573 99.5905C150.573 99.5905 147.961 98.1835 147.038 97.8685C146.114 97.5534 146.254 94.8779 146.254 94.8779C146.254 94.8779 135.17 96.3955 136.836 90.0057C136.836 90.0057 137.409 85.3049 138.636 86.2392C139.864 87.1735 139.88 84.8598 139.88 84.8598L142.661 84.2626C142.661 84.2626 146.477 79.1222 154.004 83.4951C161.532 87.868 158.038 101.88 158.038 101.88Z" fill="#2F2E41"/>
<path d="M138.787 122.3L136.295 121.92C135.599 121.814 135.116 121.158 135.222 120.462L135.527 118.463C134.622 119.022 133.958 119.957 133.786 121.091C133.519 122.84 134.507 124.487 136.075 125.128L133.895 139.441C133.889 139.477 133.89 139.512 133.889 139.547C132.197 139.688 130.757 140.968 130.49 142.72C130.334 143.748 130.61 144.741 131.182 145.516L131.456 143.715C131.562 143.019 132.218 142.537 132.914 142.643L135.406 143.022C136.102 143.128 136.585 143.785 136.478 144.48L136.174 146.479C137.078 145.921 137.742 144.985 137.915 143.852C138.182 142.099 137.189 140.448 135.615 139.81C135.625 139.776 135.636 139.743 135.642 139.707L137.822 125.394C139.51 125.249 140.944 123.971 141.21 122.222C141.367 121.195 141.091 120.201 140.519 119.427L140.245 121.227C140.138 121.923 139.482 122.406 138.787 122.3Z" fill="#3F3D56"/>
<path d="M134.145 134.753C131.154 134.109 129.091 131.992 129.537 130.024C129.983 128.057 132.769 126.984 135.76 127.629C136.959 127.869 138.077 128.403 139.021 129.185L151.655 132.079L150.061 138.181L137.776 134.681C136.581 135.003 135.336 135.028 134.145 134.753Z" fill="#FFAFAF"/>
<path d="M159.535 108.923C163.815 108.155 167.789 111.342 167.968 115.688L168.842 136.966C168.938 139.288 166.925 141.141 164.619 140.854C156.355 140.16 156.936 141.006 149.617 138.741L150.107 130.963L156.927 130.859L153.82 117.621C152.881 113.62 155.49 109.649 159.535 108.923Z" fill="#E4E4E4"/>
<defs>
<linearGradient id="paint0_linear_10991_34367" x1="131.284" y1="0" x2="131.284" y2="100.23" gradientUnits="userSpaceOnUse">
<stop offset="0.0729167" stop-color="#C42E66"/>
<stop offset="0.9999" stop-color="#EF3E3E"/>
<stop offset="1" stop-color="#D13854"/>
</linearGradient>
</defs>
</svg>
